<?xml version="1.0" standalone="no"?>
<!DOCTYPE svg PUBLIC "-//W3C//DTD SVG 20010904//EN"
 "http://www.w3.org/TR/2001/REC-SVG-20010904/DTD/svg10.dtd">
<svg version="1.0" xmlns="http://www.w3.org/2000/svg"
 width="1170.000000pt" height="528.000000pt" viewBox="0 0 1170.000000 528.000000"
 preserveAspectRatio="xMidYMid meet">

<g transform="translate(0.000000,528.000000) scale(0.100000,-0.100000)"
fill="#000000" stroke="none">
<path d="M2505 4740 c-61 -117 -268 -258 -470 -318 -38 -12 -93 -28 -122 -37
-61 -18 -205 -34 -358 -40 -170 -6 -435 32 -533 76 -23 10 -49 19 -56 19 -19
0 -118 46 -191 89 -33 19 -95 68 -137 109 -43 42 -80 73 -83 70 -3 -3 -5 -677
-5 -1498 0 -1378 1 -1495 16 -1512 10 -10 20 -18 25 -18 11 0 89 -53 89 -61 0
-4 -12 -14 -26 -24 -159 -104 -256 -318 -224 -495 17 -93 46 -162 96 -230 113
-153 315 -233 494 -196 197 41 336 168 396 363 24 77 28 83 45 71 23 -17 226
-153 304 -205 33 -21 156 -104 274 -184 117 -79 220 -148 229 -154 9 -5 63
-40 120 -78 73 -47 111 -66 124 -61 10 3 45 23 76 44 31 20 80 51 107 68 28
17 70 45 95 62 25 17 119 79 210 137 150 96 256 165 476 308 42 28 87 57 99
65 13 8 47 30 76 48 103 63 302 192 318 205 9 8 57 38 106 68 50 30 116 72
147 94 31 22 71 49 89 60 42 25 48 29 147 93 45 29 82 58 82 65 2 1171 -1
2951 -5 2955 -3 3 -38 -28 -78 -70 -109 -113 -272 -200 -464 -248 -48 -12
-104 -26 -123 -32 -51 -15 -471 -22 -555 -9 -167 26 -290 62 -457 135 -90 39
-220 155 -288 258 -30 46 -45 47 -65 8z m214 -314 c24 -29 24 -80 1 -119 -28
-48 -60 -48 -73 0 -11 39 -4 71 24 106 23 31 32 33 48 13z m-537 -609 c83 -30
182 -101 290 -208 66 -66 88 -93 88 -113 0 -54 -28 -42 -122 54 -157 158 -238
206 -372 219 -48 4 -72 11 -79 23 -32 51 84 66 195 25z m1313 -27 c4 -6 -13
-35 -37 -64 -23 -28 -61 -74 -83 -101 -22 -27 -61 -72 -87 -100 -54 -59 -59
-78 -23 -101 14 -9 25 -24 25 -33 0 -9 -35 -50 -77 -91 -43 -41 -97 -97 -121
-123 -34 -40 -46 -47 -65 -41 -26 8 -23 5 -64 67 -18 27 -29 56 -26 66 3 10
38 51 79 91 88 86 93 106 29 116 -25 3 -48 11 -51 16 -10 15 25 46 81 72 53
24 298 169 325 192 17 15 72 44 82 44 4 0 10 -5 13 -10z m-1665 -140 c12 -7
12 -17 2 -62 -37 -155 -37 -217 -1 -427 20 -118 25 -136 97 -343 29 -83 49
-128 59 -128 16 0 17 3 33 105 7 44 28 119 47 167 78 194 273 334 439 313 158
-19 312 -135 388 -290 21 -42 38 -86 38 -98 1 -12 5 -27 9 -33 5 -5 13 -43 20
-84 23 -148 -33 -344 -134 -468 -113 -139 -280 -220 -398 -193 -60 14 -79 13
-79 -3 0 -27 150 -166 180 -166 9 0 31 -18 49 -40 21 -27 45 -43 74 -51 23 -7
49 -19 59 -26 11 -10 51 -15 128 -18 108 -3 129 -9 130 -37 0 -19 -49 -38
-102 -38 -113 0 -225 38 -344 117 -31 21 -77 51 -103 67 -25 15 -49 33 -53 40
-3 6 -39 52 -80 103 -40 50 -86 110 -101 132 -41 59 -63 55 -144 -23 -71 -69
-76 -89 -24 -99 49 -10 37 -33 -36 -73 -38 -20 -120 -66 -183 -102 -225 -128
-240 -135 -240 -108 0 16 89 104 168 166 75 60 80 74 41 109 -21 20 -29 34
-25 47 3 11 69 82 146 159 77 77 140 146 140 154 0 16 -70 157 -100 201 -9 14
-30 63 -47 110 -109 300 -133 404 -140 617 -5 137 -3 159 17 225 25 84 38 98
70 78z m1334 -1139 c41 -104 81 -349 71 -436 -16 -134 -44 -203 -77 -190 -25
10 -28 29 -12 81 30 101 11 366 -36 492 -24 63 -24 66 -5 86 22 21 41 11 59
-33z m-2160 -1090 c13 -25 22 -29 71 -33 47 -4 62 -10 88 -37 30 -30 32 -36
36 -116 l3 -85 -31 0 -31 0 0 70 c0 109 -2 110 -205 110 -163 0 -166 0 -190
-25 -20 -19 -25 -34 -25 -75 0 -49 -1 -50 -30 -50 l-30 0 0 60 c0 103 42 150
133 150 40 0 46 3 57 30 12 29 15 30 76 30 60 0 64 -2 78 -29z m-9 -207 c55
-59 15 -154 -65 -154 -81 0 -121 96 -64 154 37 36 95 36 129 0z m-275 -159 c0
-25 8 -44 25 -60 22 -22 32 -25 105 -25 l80 0 0 -30 0 -30 -90 0 c-136 0 -180
33 -180 135 0 43 1 45 30 45 28 0 30 -3 30 -35z m432 -12 c22 -20 23 -61 1
-85 -34 -38 -103 -11 -103 40 0 54 62 81 102 45z"/>
<path d="M2425 3011 c-52 -13 -92 -39 -129 -84 -48 -58 -72 -117 -85 -206 -10
-63 -9 -77 4 -98 11 -16 20 -21 30 -15 26 14 355 345 355 356 -1 43 -92 67
-175 47z"/>
<path d="M2594 2706 c-55 -55 -138 -137 -185 -181 -46 -44 -88 -86 -92 -92
-13 -22 11 -50 65 -77 90 -45 180 -29 265 47 47 43 78 102 100 192 25 102 2
218 -42 214 -5 -1 -55 -47 -111 -103z"/>
<path d="M5799 3379 c-14 -5 -31 -20 -37 -32 -9 -19 -92 -340 -127 -497 -7
-30 -29 -117 -49 -193 -44 -169 -39 -187 50 -187 67 0 96 34 109 125 4 28 13
73 21 100 22 80 45 175 59 247 15 74 33 110 54 106 7 -2 33 -55 57 -118 82
-215 127 -325 135 -334 5 -6 9 -18 9 -28 0 -35 36 -58 93 -58 29 0 61 6 71 13
16 12 103 213 184 430 34 90 39 97 62 95 21 -3 26 -10 34 -48 4 -25 24 -98 42
-163 19 -65 37 -140 41 -165 3 -26 11 -58 18 -72 7 -14 15 -42 19 -63 10 -52
42 -71 107 -64 27 3 54 9 59 12 14 8 12 35 -4 97 -8 29 -38 139 -66 243 -53
200 -74 275 -109 391 -11 39 -21 80 -21 92 0 38 -40 73 -86 74 -84 1 -89 -6
-183 -247 -24 -60 -47 -119 -52 -130 -4 -11 -25 -63 -44 -115 -45 -116 -56
-131 -84 -106 -11 10 -25 35 -32 55 -19 60 -78 211 -115 294 -19 43 -34 83
-34 89 0 18 -57 133 -71 144 -21 17 -80 24 -110 13z"/>
<path d="M7340 3378 c-161 -32 -253 -85 -326 -189 -70 -100 -92 -202 -74 -342
23 -183 165 -332 349 -367 70 -13 202 -13 277 1 120 22 261 117 247 167 -13
50 -108 42 -184 -16 -88 -65 -108 -72 -211 -72 -100 0 -106 2 -178 63 -95 82
-134 177 -128 318 4 114 31 181 105 260 116 124 282 131 410 16 51 -46 75 -57
122 -57 41 0 71 20 71 47 0 24 -85 97 -138 121 -104 45 -257 68 -342 50z"/>
<path d="M8314 3382 c-273 -2 -344 -5 -353 -16 -8 -9 -11 -138 -12 -437 0
-422 0 -424 22 -441 19 -16 52 -18 366 -18 218 0 351 4 364 10 10 6 19 19 19
29 0 43 -19 46 -314 51 l-281 5 -3 164 c-2 112 1 168 9 177 9 11 55 14 223 14
175 0 215 3 234 16 27 18 28 36 4 57 -15 14 -51 17 -243 19 l-224 3 -3 130
c-2 113 0 131 15 142 12 10 85 13 284 13 230 0 270 2 283 16 13 12 23 54 13
54 -1 0 -16 3 -32 8 -17 4 -184 6 -371 4z"/>
<path d="M10536 3383 c-230 -2 -344 -7 -353 -14 -10 -9 -13 -94 -13 -439 0
-397 1 -428 18 -443 15 -14 60 -16 365 -17 225 0 355 3 367 10 29 16 25 47
-10 65 -24 12 -76 15 -294 15 -192 0 -267 3 -272 12 -12 20 -6 318 7 334 9 11
53 14 225 14 198 0 215 1 233 19 16 16 19 45 7 63 0 1 -107 5 -236 8 l-235 5
-3 129 c-2 86 1 133 9 142 9 11 63 14 281 14 166 0 277 4 289 10 31 17 24 56
-12 69 -18 6 -32 10 -33 9 -1 -2 -154 -4 -340 -5z"/>
<path d="M9047 3363 c-16 -19 -54 -143 -68 -228 -5 -27 -13 -61 -18 -75 -5
-14 -21 -74 -36 -135 -14 -60 -34 -141 -45 -180 -67 -251 -64 -235 -47 -252
20 -20 98 -29 126 -13 25 13 60 82 61 119 0 13 23 117 52 232 42 169 55 209
69 209 23 0 38 -21 54 -72 7 -24 37 -104 67 -178 30 -74 62 -156 72 -182 30
-80 49 -98 110 -98 28 0 61 6 72 14 11 8 33 47 48 88 16 40 36 91 46 113 10
22 39 92 64 157 58 150 73 179 90 172 18 -7 24 -22 46 -114 10 -41 29 -113 43
-160 14 -47 27 -98 30 -115 16 -80 46 -170 62 -182 28 -19 99 -16 126 6 23 18
23 18 7 82 -9 35 -24 93 -33 129 -10 36 -32 119 -51 185 -45 161 -95 351 -104
399 -4 21 -17 50 -27 65 -17 22 -29 26 -76 29 -70 4 -81 -7 -126 -125 -19 -48
-42 -106 -52 -128 -10 -22 -29 -70 -43 -108 -14 -37 -32 -82 -40 -100 -8 -17
-25 -58 -36 -89 -12 -32 -27 -58 -34 -58 -13 0 -46 31 -46 44 0 10 -168 434
-197 496 -14 30 -30 58 -37 62 -23 15 -112 9 -129 -9z"/>
<path d="M0 120 l0 -120 5850 0 5850 0 0 120 0 120 -5850 0 -5850 0 0 -120z"/>
</g>
</svg>
